<svg width="77" height="77" viewBox="0 0 77 77" fill="none" xmlns="http://www.w3.org/2000/svg">
<g id="target-svgrepo-com 1" clip-path="url(#clip0_9_76)">
<g id="Group">
<path id="Vector" d="M65.7297 11.2703C58.4619 4.00257 48.7916 0 38.5 0C28.2084 0 18.5381 4.00257 11.2703 11.2703C4.00257 18.5381 0 28.2085 0 38.5C0 48.7915 4.00257 58.4619 11.2703 65.7297C18.5381 72.9974 28.2084 77 38.5 77C48.7916 77 58.4619 72.9974 65.7297 65.7297C72.9974 58.4619 77 48.7915 77 38.5C77 28.2085 72.9974 18.5381 65.7297 11.2703ZM38.5 72.2371C19.8973 72.2371 4.76289 57.1027 4.76289 38.5C4.76289 19.8973 19.8973 4.76289 38.5 4.76289C57.1027 4.76289 72.2371 19.8973 72.2371 38.5C72.2371 57.1027 57.1027 72.2371 38.5 72.2371Z" fill="white" fill-opacity="0.58"/>
<path id="Vector_2" d="M55.7639 21.236C51.156 16.628 45.0247 14.0902 38.4999 14.0902C31.975 14.0902 25.8438 16.628 21.2358 21.236C16.6279 25.8439 14.0901 31.9752 14.0901 38.5C14.0901 45.0248 16.6278 51.1561 21.2358 55.764C25.8439 60.372 31.975 62.9098 38.4999 62.9098C45.0247 62.9098 51.156 60.372 55.7639 55.764C60.3719 51.1561 62.9097 45.0248 62.9097 38.5C62.9097 31.9752 60.372 25.8439 55.7639 21.236ZM38.4999 58.1469C27.6665 58.1469 18.853 49.3333 18.853 38.5C18.853 27.6667 27.6665 18.8531 38.4999 18.8531C49.3332 18.8531 58.1468 27.6667 58.1468 38.5C58.1468 49.3333 49.3332 58.1469 38.4999 58.1469Z" fill="white" fill-opacity="0.58"/>
<path id="Vector_3" d="M38.5 28.1804C32.8098 28.1804 28.1804 32.8098 28.1804 38.5C28.1804 44.1902 32.8098 48.8196 38.5 48.8196C44.1902 48.8196 48.8196 44.1902 48.8196 38.5C48.8196 32.8098 44.1902 28.1804 38.5 28.1804Z" fill="white" fill-opacity="0.58"/>
</g>
</g>
<defs>
<clipPath id="clip0_9_76">
<rect width="77" height="77" fill="white"/>
</clipPath>
</defs>
</svg>
