<svg width="77" height="77" viewBox="0 0 77 77" fill="none" xmlns="http://www.w3.org/2000/svg">
<g id="wallet-svgrepo-com 1" clip-path="url(#clip0_8_10)">
<g id="Group">
<g id="Group_2">
<path id="Vector" d="M64.0616 18.6891L60.8493 6.91979L49.9338 9.89897L45.3867 0.720551L9.11766 18.6891H0V76.2795H72.048V60.7569H77.0001V33.949H72.0479V18.6891H64.0616ZM57.0611 13.5521L58.4633 18.6892H54.2887H48.2615H38.239L47.0677 16.2795L52.377 14.8305L57.0611 13.5521ZM66.6471 70.8787H5.4008V41.464V31.2081V30.3953V24.8526V24.09H8.195H10.3822H18.451H50.9372H56.9645H59.9374H62.7364H65.5356H66.6471V28.1622V33.949H65.4274H62.6282H55.6508H43.485H39.0995V36.1217V42.149V42.8446V45.6438V48.443V60.7567H66.6472V70.8785H66.6471V70.8787ZM71.5992 55.3561H69.3474H66.647H44.5003V46.9691V44.1699V41.3707V39.4734V39.3498H44.7496H51.9045H62.1604H66.6472H69.3476H69.7007H71.5992V55.3561ZM42.9449 7.95754L44.6247 11.348L25.646 16.5278L42.9449 7.95754Z" fill="white" fill-opacity="0.58"/>
<path id="Vector_2" d="M48.7778 44.8401V45.8017V50.1283H54.0662V44.8401H52.3004H48.7778Z" fill="white" fill-opacity="0.58"/>
</g>
</g>
</g>
<defs>
<clipPath id="clip0_8_10">
<rect width="77" height="77" fill="white"/>
</clipPath>
</defs>
</svg>
