<svg width="77" height="51" viewBox="0 0 77 51" fill="none" xmlns="http://www.w3.org/2000/svg">
<g id="money-currency-svgrepo-com 1" clip-path="url(#clip0_9_48)">
<g id="Group">
<g id="Group_2">
<path id="Vector" d="M71.8919 0.305786H5.10807C2.29119 0.305786 0 2.5962 0 5.41307V45.5854C0 48.4022 2.29119 50.6941 5.10807 50.6941H71.8919C74.7088 50.6941 77 48.4021 77 45.5854V5.41307C77 2.5962 74.7088 0.305786 71.8919 0.305786ZM73.9199 45.5854C73.9199 46.7043 73.0101 47.6141 71.8919 47.6141H5.10807C3.98992 47.6141 3.08011 46.7043 3.08011 45.5854V5.41307C3.08011 4.29571 3.98992 3.38574 5.10807 3.38574H71.8919C73.0101 3.38574 73.9199 4.29555 73.9199 5.41307V45.5854Z" fill="white" fill-opacity="0.58"/>
</g>
</g>
<g id="Group_3">
<g id="Group_4">
<path id="Vector_2" d="M64.6799 16.193C62.7128 16.193 61.1118 14.5929 61.1118 12.6257V11.0858H15.8881V12.6257C15.8881 14.5929 14.2871 16.193 12.32 16.193H10.78V34.8054H12.32C14.2871 34.8054 15.8881 36.407 15.8881 38.3741V39.9141H61.112V38.3741C61.112 36.407 62.713 34.8054 64.6801 34.8054H66.2201V16.193H64.6799ZM63.14 31.9059C60.7089 32.4849 58.7906 34.4025 58.2116 36.8343H18.7883C18.2093 34.4025 16.2912 32.4849 13.86 31.9059V19.0927C16.291 18.5136 18.2093 16.5961 18.7883 14.1659H58.2118C58.7908 16.5963 60.7089 18.5136 63.1401 19.0927V31.9059H63.14Z" fill="white" fill-opacity="0.58"/>
</g>
</g>
<g id="Group_5">
<g id="Group_6">
<path id="Vector_3" d="M38.5 18.9602C34.8943 18.9602 31.9609 21.8944 31.9609 25.4992C31.9609 29.1041 34.8943 32.0383 38.5 32.0383C42.1056 32.0383 45.039 29.1041 45.039 25.4992C45.039 21.8944 42.1056 18.9602 38.5 18.9602ZM38.5 28.9582C36.5931 28.9582 35.041 27.4061 35.041 25.4992C35.041 23.5923 36.5931 22.0403 38.5 22.0403C40.4069 22.0403 41.9589 23.5923 41.9589 25.4992C41.9589 27.4061 40.4069 28.9582 38.5 28.9582Z" fill="white" fill-opacity="0.58"/>
</g>
</g>
</g>
<defs>
<clipPath id="clip0_9_48">
<rect width="77" height="51" fill="white"/>
</clipPath>
</defs>
</svg>
